<svg version="1.1" xmlns="http://www.w3.org/2000/svg" fill-rule="evenodd" clip-rule="evenodd" height="1024" width="1024" viewBox="0 0 1024 1024"><path d="M942.68928 706.88256 294.03136 706.88256 125.18912 99.05152 9.5744 99.05152 9.5744 47.85152 164.10624 47.85152 332.94848 655.68256 899.95776 655.68256 958.18752 335.43168 414.7968 335.43168 414.7968 284.23168 1019.53536 284.23168Z" fill="#ccc"></path><path d="M381.0304 977.02912c-51.35872 0-93.13792-41.7792-93.13792-93.1328 0-51.35872 41.78432-93.13792 93.13792-93.13792 51.3536 0 93.1328 41.7792 93.1328 93.13792C474.1632 935.24992 432.384 977.02912 381.0304 977.02912zM381.0304 841.95328c-23.12704 0-41.93792 18.816-41.93792 41.93792s18.816 41.9328 41.93792 41.9328c23.12192 0 41.9328-18.81088 41.9328-41.9328S404.15232 841.95328 381.0304 841.95328z" fill="#ccc"></path><path d="M820.01408 977.02912c-51.3536 0-93.1328-41.7792-93.1328-93.1328 0-51.35872 41.7792-93.13792 93.1328-93.13792 51.35872 0 93.14304 41.7792 93.14304 93.13792C913.16224 935.24992 871.3728 977.02912 820.01408 977.02912zM820.01408 841.95328c-23.12704 0-41.9328 18.816-41.9328 41.93792s18.81088 41.9328 41.9328 41.9328c23.13216 0 41.94304-18.81088 41.94304-41.9328S843.14624 841.95328 820.01408 841.95328z" fill="#ccc"></path><path d="M490.50112 411.136l51.2 0 0 168.84224-51.2 0 0-168.84224Z" fill="#ccc"></path><path d="M693.11488 411.136l51.2 0 0 168.84224-51.2 0 0-168.84224Z" fill="#ccc"></path></svg>